<?xml version="1.0" encoding="utf-8"?>
<!-- Svg Vector Icons : http://www.onlinewebfonts.com/icon -->
<!DOCTYPE svg PUBLIC "-//W3C//DTD SVG 1.1//EN" "http://www.w3.org/Graphics/SVG/1.1/DTD/svg11.dtd">
<svg version="1.1" xmlns="http://www.w3.org/2000/svg" xmlns:xlink="http://www.w3.org/1999/xlink" x="0px" y="0px" viewBox="0 0 1000 1000" enable-background="new 0 0 1000 1000" xml:space="preserve">
<metadata> Svg Vector Icons : http://www.onlinewebfonts.com/icon </metadata>
<g><g><g><g><path d="M498.4,302.6c22.1-3.2,44.9-16.4,62.6-36.2c17.7-19.8,28.5-43.8,30.5-67.7c-0.4-2.2-0.4-4.2-0.3-6.1c-20.3,2.3-43.7,16-63.2,37.2c-20.3,22.1-32.5,48.1-32.6,69.7c0,1.4,0,2.5,0.1,3.4C496.3,302.9,497.3,302.8,498.4,302.6z"/><path d="M701.7,614.2c-39.8-26.3-64-64-68.2-106.2c-4.2-42.5,12.4-84.6,46.7-118.5c8.5-8.4,11.2-12.1,11.9-13.8c-0.8-1.5-3.8-4.9-14.1-12.9c-25.4-19.6-52.8-29.6-81.5-29.6c-17.8,0-36.4,3.8-55.3,11.4c-18.3,7.4-35.5,11-52.5,11c-17.3,0-34.7-3.7-53.2-11.3c-15.6-6.4-31.5-9.7-47.4-9.7c-39.7,0-77.1,21-102.5,57.7c-21.1,30.3-29.2,65.8-29.8,87c-0.1,46.8,8.7,95,25.4,139.6c16.1,43,38.8,80.7,65.6,109.1c18.9,19.9,33.3,28.1,49.9,28.1c9.5,0,20.5-2.8,33.6-8.4c21.6-9.3,42.4-13.8,63.6-13.8c21.9,0,43.4,4.8,65.9,14.8c10.3,4.6,20.6,6.9,30.3,6.9c19.3,0,36.7-8.8,51.7-26c28.8-33,49.5-66.6,63.5-102.7c2.3-5.8,1.9-7.4,1.9-7.5C707.3,619.2,706.8,617.6,701.7,614.2z"/><path d="M874.1,183.5C789.5,83.6,671.1,22.6,540.7,11.7C527,10.6,513.1,10,499.4,10C377,10,259.7,55.7,169,138.7C77.9,222.2,22,336,11.7,459.3c-22.5,269.2,178.3,506.6,447.5,529c13.7,1.1,27.6,1.7,41.3,1.7C623,990,740.3,944.3,831,861.3c91.2-83.5,147-197.3,157.3-320.6C999.1,410.3,958.6,283.5,874.1,183.5z M592.6,179.6c0.8-0.1,1.5-0.1,2.2-0.1c14.8,0,7.4,12.1,9.5,18.2c-3.7,56.8-51.8,109.9-104.1,117.6c-2.1,0.3-4,0.5-5.7,0.5c-9.6,0-12.1-5.2-12-16.3C482.8,247,541.5,183.1,592.6,179.6z M717.4,631.4c-15.3,39.7-38,74.8-65.8,106.5c-17.3,19.9-38.5,30.4-61.5,30.4c-11.5,0-23.4-2.6-35.5-8c-20.5-9.1-40.6-13.7-60.7-13.7c-19.3,0-38.6,4.2-58.4,12.8c-14.6,6.3-27.2,9.5-38.7,9.5c-21.2,0-38.9-10.6-59.2-32.1c-56-59.2-94.7-157.4-94.5-257.7c0.6-22.2,8.6-60.3,32.1-94.1c28-40.4,69-63.2,113.1-63.2c17.1,0,34.8,3.5,52.3,10.7c16.8,6.9,32.6,10.4,48.3,10.4c15.6,0,31.2-3.4,47.7-10c20.3-8.2,40.4-12.4,60.1-12.4c31.2,0,61.2,10.5,89.3,32.3c25,19.3,25,24.6,3.4,46c-64.7,64-56.5,154.6,19.5,204.8C721.3,611.8,722.4,618.5,717.4,631.4z"/></g></g></g><g></g><g></g><g></g><g></g><g></g><g></g><g></g><g></g><g></g><g></g><g></g><g></g><g></g><g></g><g></g></g>
</svg>